<svg width="152" height="44" viewBox="0 0 152 44" fill="none" xmlns="http://www.w3.org/2000/svg">
<path d="M47.675 43H38.8V8.6H47.675V43ZM52.2098 43V22.475H61.0348V43H52.2098ZM56.7348 19.325C55.3848 19.325 54.2348 18.85 53.2848 17.9C52.3514 16.95 51.8848 15.8167 51.8848 14.5C51.8848 13.1833 52.3514 12.0417 53.2848 11.075C54.2348 10.1083 55.3848 9.625 56.7348 9.625C57.6181 9.625 58.4264 9.85 59.1598 10.3C59.8931 10.7333 60.4848 11.3167 60.9348 12.05C61.3848 12.7833 61.6098 13.6 61.6098 14.5C61.6098 15.8167 61.1264 16.95 60.1598 17.9C59.2098 18.85 58.0681 19.325 56.7348 19.325ZM80.8805 21.875C82.3638 21.875 83.8055 22.1667 85.2055 22.75C86.6055 23.3333 87.7555 24.2667 88.6555 25.55C89.5721 26.8333 90.0305 28.5083 90.0305 30.575V43H81.1555V32C81.1555 30.75 80.8555 29.7917 80.2555 29.125C79.6555 28.4417 78.8555 28.1 77.8555 28.1C77.2055 28.1 76.5971 28.2667 76.0305 28.6C75.4638 28.9333 75.0055 29.4 74.6555 30C74.3221 30.6 74.1555 31.3 74.1555 32.1V43H65.3055V22.475H74.1555V25.25C74.3721 24.7 74.7971 24.175 75.4305 23.675C76.0638 23.1583 76.8555 22.7333 77.8055 22.4C78.7555 22.05 79.7805 21.875 80.8805 21.875ZM108.553 22.475H118.428L109.078 32.275L119.528 43H109.403L102.103 35.075V43H93.2531V8.6H102.103V29.225L108.553 22.475ZM119.425 22.475H122.725V14.05H131.475V22.475H135.825V29.7H131.475V33.7C131.475 34.4167 131.567 35.0333 131.75 35.55C131.95 36.05 132.367 36.3 133 36.3C133.384 36.3 133.725 36.2167 134.025 36.05C134.325 35.8667 134.509 35.7417 134.575 35.675L137.525 41.925C137.392 42.025 136.984 42.2167 136.3 42.5C135.634 42.7667 134.784 43.0167 133.75 43.25C132.734 43.4833 131.6 43.6 130.35 43.6C128.134 43.6 126.309 42.9917 124.875 41.775C123.442 40.5417 122.725 38.65 122.725 36.1V29.7H119.425V22.475ZM140.149 43V22.475H148.974V43H140.149ZM144.674 19.325C143.324 19.325 142.174 18.85 141.224 17.9C140.291 16.95 139.824 15.8167 139.824 14.5C139.824 13.1833 140.291 12.0417 141.224 11.075C142.174 10.1083 143.324 9.625 144.674 9.625C145.558 9.625 146.366 9.85 147.099 10.3C147.833 10.7333 148.424 11.3167 148.874 12.05C149.324 12.7833 149.549 13.6 149.549 14.5C149.549 15.8167 149.066 16.95 148.099 17.9C147.149 18.85 146.008 19.325 144.674 19.325Z" fill="white"/>
<path d="M0 43V20L6.19231 32.5849L23 26.9434L0 43Z" fill="#346BED"/>
<path d="M24 0V25L17.5385 11.3208L0 17.4528L24 0Z" fill="#F37C62"/>
</svg>
